<svg version="1.1" viewBox="0.0 0.0 400.0 240.0" fill="none" stroke="none" stroke-linecap="square" stroke-miterlimit="10" xmlns:xlink="http://www.w3.org/1999/xlink" xmlns="http://www.w3.org/2000/svg"><clipPath id="p.0"><path d="m0 0l400.0 0l0 240.0l-400.0 0l0 -240.0z" clip-rule="nonzero"/></clipPath><g clip-path="url(#p.0)"><defs><linearGradient id="p.1" gradientUnits="userSpaceOnUse" gradientTransform="matrix(19.035316335350934 0.0 0.0 19.035316335350934 0.0 0.0)" spreadMethod="pad" x1="-4.052474168997374" y1="1.4751199993489523" x2="2.4585334220167003" y2="19.362267567830504"><stop offset="0.0" stop-color="#434343"/><stop offset="1.0" stop-color="#0f0f0f"/></linearGradient></defs><path fill="url(#p.1)" d="m0 0l400.0 0l0 240.0l-400.0 0z" fill-rule="evenodd"/><defs><linearGradient id="p.2" gradientUnits="userSpaceOnUse" gradientTransform="matrix(19.032999475995766 0.0 0.0 19.032999475995766 0.0 0.0)" spreadMethod="pad" x1="19.487998606053257" y1="1.4728681136650157" x2="25.99284607827263" y2="19.359791505249614"><stop offset="0.0" stop-color="#ffffff" stop-opacity="0.0"/><stop offset="0.7" stop-color="#009898" stop-opacity="0.0"/><stop offset="1.0" stop-color="#009898"/></linearGradient></defs><path fill="url(#p.2)" d="m448.0 0l400.0 0l0 240.0l-400.0 0z" fill-rule="evenodd"/><path fill="#f9fbfd" d="m645.71826 217.76q-2.609375 0 -4.1875 -1.234375q-1.578125 -1.234375 -2.390625 -3.6875l-4.984375 -15.40625q-0.34375 -1.09375 -0.34375 -2.09375q0 -2.078125 1.421875 -3.296875q1.4375 -1.21875 3.703125 -1.21875q2.65625 0 3.84375 1.28125q1.203125 1.265625 1.734375 3.984375l2.59375 13.265625l2.640625 -13.265625q0.53125 -2.65625 1.84375 -3.953125q1.3125 -1.3125 3.984375 -1.3125q2.171875 0 3.515625 1.1875q1.34375 1.171875 1.34375 3.234375q0 1.0625 -0.359375 2.1875l-4.953125 15.40625q-0.78125 2.453125 -2.390625 3.6875q-1.59375 1.234375 -4.1875 1.234375l-2.828125 0zm37.601685 -13.828125q-1.375 0 -2.375 -0.859375q-0.984375 -0.859375 -0.984375 -2.5625q0 -1.734375 0.984375 -2.578125q1.0 -0.84375 2.375 -0.84375q1.375 0 2.359375 0.84375q1.0 0.84375 1.0 2.578125q0 1.703125 -1.0 2.5625q-0.984375 0.859375 -2.359375 0.859375zm0 14.421875q-2.890625 0 -5.578125 -0.90625q-2.6875 -0.921875 -4.8125 -2.984375q-2.125 -2.078125 -3.359375 -5.5q-1.234375 -3.4375 -1.234375 -8.453125q0 -5.015625 1.234375 -8.421875q1.234375 -3.421875 3.359375 -5.46875q2.125 -2.0625 4.8125 -2.96875q2.6875 -0.921875 5.578125 -0.921875q2.9375 0 5.625 0.921875q2.6875 0.90625 4.765625 2.96875q2.09375 2.046875 3.3125 5.46875q1.21875 3.40625 1.21875 8.421875q0 5.015625 -1.21875 8.453125q-1.21875 3.421875 -3.3125 5.5q-2.078125 2.0625 -4.765625 2.984375q-2.6875 0.90625 -5.625 0.90625zm0 -7.203125q1.171875 0 2.140625 -0.90625q0.96875 -0.90625 1.53125 -3.21875q0.578125 -2.3125 0.578125 -6.515625q0 -4.140625 -0.578125 -6.4375q-0.5625 -2.296875 -1.53125 -3.21875q-0.96875 -0.921875 -2.140625 -0.921875q-1.171875 0 -2.15625 0.921875q-0.984375 0.921875 -1.578125 3.21875q-0.578125 2.296875 -0.578125 6.4375q0 4.203125 0.578125 6.515625q0.59375 2.3125 1.578125 3.21875q0.984375 0.90625 2.15625 0.90625zm32.820374 7.890625q-2.078125 0 -3.796875 -1.015625q-1.71875 -1.0 -2.734375 -2.71875q-1.0 -1.71875 -1.0 -3.796875q0 -2.09375 1.0 -3.796875q1.015625 -1.71875 2.734375 -2.703125q1.71875 -1.0 3.796875 -1.0q2.0625 0 3.765625 1.0q1.71875 0.984375 2.71875 2.703125q1.015625 1.703125 1.015625 3.796875q0 2.078125 -1.015625 3.796875q-1.0 1.71875 -2.71875 2.71875q-1.703125 1.015625 -3.765625 1.015625zm24.054749 -7.21875q0 -1.65625 1.203125 -2.890625q1.203125 -1.25 2.84375 -1.25q1.234375 0 2.421875 0.65625q1.203125 0.65625 2.140625 1.578125q0.65625 0.59375 1.46875 0.9375q0.828125 0.328125 1.875 0.328125q1.484375 0 2.390625 -0.46875q0.90625 -0.484375 1.3125 -1.296875q0.40625 -0.8125 0.40625 -1.8125q0 -1.15625 -0.65625 -1.953125q-0.65625 -0.796875 -1.640625 -1.25q-0.984375 -0.46875 -1.984375 -0.578125q-1.59375 -0.234375 -2.875 -1.046875q-1.265625 -0.828125 -1.265625 -2.578125q0 -1.984375 1.265625 -2.65625q1.28125 -0.671875 2.875 -0.921875q1.0 -0.171875 1.796875 -0.578125q0.8125 -0.40625 1.28125 -1.109375q0.484375 -0.71875 0.484375 -1.734375q0 -0.953125 -0.28125 -1.6875q-0.28125 -0.734375 -0.984375 -1.15625q-0.703125 -0.421875 -1.96875 -0.421875q-0.5 0 -1.578125 0.234375q-1.078125 0.234375 -2.171875 1.15625q-1.234375 1.046875 -2.109375 1.59375q-0.859375 0.546875 -2.25 0.546875q-1.625 0 -2.734375 -1.1875q-1.109375 -1.203125 -1.109375 -2.859375q0 -2.375 2.609375 -4.109375q1.765625 -1.171875 4.203125 -1.875q2.453125 -0.703125 5.140625 -0.703125q3.53125 0 6.5625 0.96875q3.046875 0.96875 4.921875 3.0q1.875 2.03125 1.875 5.25q0 1.953125 -0.875 3.625q-0.859375 1.65625 -2.328125 2.828125q-1.46875 1.15625 -3.265625 1.640625q2.15625 0.578125 3.78125 1.640625q1.625 1.0625 2.515625 2.65625q0.90625 1.578125 0.90625 3.734375q0 3.296875 -1.96875 5.609375q-1.953125 2.3125 -5.171875 3.5q-3.21875 1.1875 -6.96875 1.1875q-2.9375 0 -5.40625 -0.6875q-2.46875 -0.703125 -4.3125 -1.9375q-1.296875 -0.875 -1.84375 -1.890625q-0.53125 -1.015625 -0.53125 -2.03125zm45.27356 7.21875q-2.078125 0 -3.796875 -1.015625q-1.71875 -1.0 -2.734375 -2.71875q-1.0 -1.71875 -1.0 -3.796875q0 -2.09375 1.0 -3.796875q1.015625 -1.71875 2.734375 -2.703125q1.71875 -1.0 3.796875 -1.0q2.0625 0 3.765625 1.0q1.71875 0.984375 2.71875 2.703125q1.015625 1.703125 1.015625 3.796875q0 2.078125 -1.015625 3.796875q-1.0 1.71875 -2.71875 2.71875q-1.703125 1.015625 -3.765625 1.015625zm48.945374 -25.3125q0 2.359375 -1.21875 4.671875q-1.21875 2.3125 -3.078125 4.390625q-1.84375 2.0625 -3.828125 3.734375q-1.96875 1.65625 -3.515625 2.71875q-1.546875 1.046875 -2.140625 1.296875l9.265625 0q2.859375 0 4.234375 0.9375q1.375 0.9375 1.375 2.671875q0 1.734375 -1.375 2.671875q-1.375 0.9375 -4.234375 0.9375l-16.828125 0q-2.859375 0 -4.09375 -1.203125q-1.21875 -1.203125 -1.21875 -2.9375q0 -1.828125 1.015625 -2.90625q1.015625 -1.078125 2.984375 -2.53125q1.421875 -1.0625 3.09375 -2.40625q1.6875 -1.34375 3.34375 -2.828125q1.65625 -1.484375 3.015625 -3.03125q1.359375 -1.5625 2.171875 -3.046875q0.8125 -1.484375 0.8125 -2.796875q0 -1.984375 -0.875 -3.046875q-0.875 -1.0625 -2.359375 -1.0625q-1.203125 0 -2.3125 0.6875q-1.09375 0.671875 -2.15625 1.546875q-1.09375 0.859375 -2.21875 1.546875q-1.125 0.6875 -2.375 0.6875q-1.484375 0 -2.875 -1.109375q-1.390625 -1.125 -1.390625 -2.671875q0 -2.453125 2.890625 -4.640625q1.828125 -1.40625 4.5 -2.328125q2.671875 -0.921875 6.109375 -0.921875q6.0 0 9.640625 2.578125q3.640625 2.578125 3.640625 8.390625z" fill-rule="nonzero"/><path fill="#0d8000" d="m7.426645 120.020996l0 0c0 -45.704826 37.051083 -82.755905 82.755905 -82.755905l0 0c21.948235 0 42.99752 8.718903 58.517265 24.238644c15.519745 15.519741 24.238647 36.569035 24.238647 58.51726l0 0c0 45.70482 -37.051086 82.755905 -82.75591 82.755905l0 0c-45.704823 0 -82.755905 -37.051086 -82.755905 -82.755905z" fill-rule="evenodd"/><path stroke="#56a64d" stroke-width="8.0" stroke-linejoin="round" stroke-linecap="butt" d="m7.426645 120.020996l0 0c0 -45.704826 37.051083 -82.755905 82.755905 -82.755905l0 0c21.948235 0 42.99752 8.718903 58.517265 24.238644c15.519745 15.519741 24.238647 36.569035 24.238647 58.51726l0 0c0 45.70482 -37.051086 82.755905 -82.75591 82.755905l0 0c-45.704823 0 -82.755905 -37.051086 -82.755905 -82.755905z" fill-rule="evenodd"/><path fill="#000000" fill-opacity="0.0" d="m40.65825 24.705223l97.6693 0l0 180.97638l-97.6693 0z" fill-rule="evenodd"/><path fill="#56a64d" d="m90.72075 164.64272q-3.265625 0 -5.171875 -1.765625q-1.890625 -1.765625 -1.890625 -5.171875l0 -4.734375q-6.328125 -0.59375 -11.765625 -2.359375q-5.4375 -1.765625 -8.703125 -4.5q-3.265625 -2.734375 -3.265625 -6.140625q0 -3.328125 2.09375 -5.0625q2.109375 -1.734375 5.5 -1.734375q1.546875 0 3.265625 0.5q1.734375 0.5 3.734375 1.5q2.140625 1.203125 4.53125 2.3125q2.40625 1.09375 5.34375 1.828125q2.9375 0.71875 6.59375 0.71875q5.609375 0 8.875 -1.53125q3.265625 -1.53125 3.265625 -5.0625q0 -2.140625 -1.875 -3.46875q-1.859375 -1.328125 -5.328125 -2.2656174q-3.46875 -0.9375 -8.203125 -1.734375q-7.65625 -1.390625 -13.46875 -3.796875q-5.796875 -2.40625 -9.0625 -6.4375q-3.265625 -4.03125 -3.265625 -10.296875q0 -5.59375 3.03125 -9.359375q3.03125 -3.765625 8.03125 -5.859375q5.0 -2.109375 10.671875 -2.84375l0 -5.53125q0 -3.34375 1.890625 -5.140625q1.90625 -1.796875 5.171875 -1.796875q3.40625 0 5.234375 1.796875q1.828125 1.796875 1.828125 5.140625l0 5.265625q5.609375 0.390625 10.296875 1.859375q4.703125 1.46875 7.609375 3.90625q2.90625 2.4375 2.90625 5.96875q0 3.0625 -2.140625 4.671875q-2.140625 1.59375 -5.265625 1.59375q-1.859375 0 -3.46875 -0.4375q-1.59375 -0.4375 -3.328125 -1.171875q-1.9375 -1.125 -5.078125 -2.296875q-3.125 -1.171875 -7.796875 -1.171875q-1.921875 0 -3.96875 0.234375q-2.03125 0.234375 -3.796875 0.90625q-1.765625 0.671875 -2.796875 1.8125q-1.03125 1.125 -1.03125 2.921875q0 2.0625 1.921875 3.375q1.9375 1.296875 5.265625 2.171875q3.34375 0.859375 7.671875 1.65625q7.671875 1.328125 13.734375 3.4375q6.078125 2.09375 9.5 5.890625q3.4375 3.796875 3.4375 10.203117q0 6.0625 -3.171875 10.296875q-3.15625 4.234375 -8.53125 6.671875q-5.359375 2.421875 -11.96875 3.234375l0 4.859375q0 3.40625 -1.828125 5.171875q-1.828125 1.765625 -5.234375 1.765625z" fill-rule="nonzero"/><path fill="#e60039" d="m185.45407 90.727036l0 0c0 -4.574829 3.7086334 -8.283463 8.283463 -8.283463l0 0c2.1969147 0 4.3038483 0.8727188 5.8573 2.4261703c1.5534515 1.5534515 2.4261627 3.6603775 2.4261627 5.857292l0 0c0 4.574829 -3.7086334 8.283463 -8.283463 8.283463l0 0c-4.574829 0 -8.283463 -3.7086334 -8.283463 -8.283463z" fill-rule="evenodd"/><path stroke="#e60039" stroke-width="1.0" stroke-linejoin="round" stroke-linecap="butt" d="m185.45407 90.727036l0 0c0 -4.574829 3.7086334 -8.283463 8.283463 -8.283463l0 0c2.1969147 0 4.3038483 0.8727188 5.8573 2.4261703c1.5534515 1.5534515 2.4261627 3.6603775 2.4261627 5.857292l0 0c0 4.574829 -3.7086334 8.283463 -8.283463 8.283463l0 0c-4.574829 0 -8.283463 -3.7086334 -8.283463 -8.283463z" fill-rule="evenodd"/><path fill="#8909ca" d="m486.98315 104.93728l0 0c4.574829 0 8.283478 3.7086334 8.283478 8.283463l0 0c0 2.1969147 -0.8727112 4.3038483 -2.426178 5.8573c-1.5534363 1.5534515 -3.6603699 2.4261703 -5.8573 2.4261703l0 0c-4.574829 0 -8.283447 -3.7086334 -8.283447 -8.28347l0 0c0 -4.574829 3.7086182 -8.283463 8.283447 -8.283463z" fill-rule="evenodd"/><path stroke="#8909ca" stroke-width="1.0" stroke-linejoin="round" stroke-linecap="butt" d="m486.98315 104.93728l0 0c4.574829 0 8.283478 3.7086334 8.283478 8.283463l0 0c0 2.1969147 -0.8727112 4.3038483 -2.426178 5.8573c-1.5534363 1.5534515 -3.6603699 2.4261703 -5.8573 2.4261703l0 0c-4.574829 0 -8.283447 -3.7086334 -8.283447 -8.28347l0 0c0 -4.574829 3.7086182 -8.283463 8.283447 -8.283463z" fill-rule="evenodd"/><path fill="#ffff00" d="m211.80052 115.19423l0 0c0 -4.5748367 3.7086334 -8.28347 8.283463 -8.28347l0 0c2.1969147 0 4.3038483 0.8727188 5.8573 2.4261703c1.5534515 1.5534515 2.4261627 3.6603851 2.4261627 5.8573l0 0c0 4.574829 -3.7086334 8.283463 -8.283463 8.283463l0 0c-4.574829 0 -8.283463 -3.7086334 -8.283463 -8.283463z" fill-rule="evenodd"/><path stroke="#ffff00" stroke-width="1.0" stroke-linejoin="round" stroke-linecap="butt" d="m211.80052 115.19423l0 0c0 -4.5748367 3.7086334 -8.28347 8.283463 -8.28347l0 0c2.1969147 0 4.3038483 0.8727188 5.8573 2.4261703c1.5534515 1.5534515 2.4261627 3.6603851 2.4261627 5.8573l0 0c0 4.574829 -3.7086334 8.283463 -8.283463 8.283463l0 0c-4.574829 0 -8.283463 -3.7086334 -8.283463 -8.283463z" fill-rule="evenodd"/><path fill="#d95326" d="m185.45407 115.19423l0 0c0 -4.5748367 3.7086334 -8.28347 8.283463 -8.28347l0 0c2.1969147 0 4.3038483 0.8727188 5.8573 2.4261703c1.5534515 1.5534515 2.4261627 3.6603851 2.4261627 5.8573l0 0c0 4.574829 -3.7086334 8.283463 -8.283463 8.283463l0 0c-4.574829 0 -8.283463 -3.7086334 -8.283463 -8.283463z" fill-rule="evenodd"/><path stroke="#d95326" stroke-width="1.0" stroke-linejoin="round" stroke-linecap="butt" d="m185.45407 115.19423l0 0c0 -4.5748367 3.7086334 -8.28347 8.283463 -8.28347l0 0c2.1969147 0 4.3038483 0.8727188 5.8573 2.4261703c1.5534515 1.5534515 2.4261627 3.6603851 2.4261627 5.8573l0 0c0 4.574829 -3.7086334 8.283463 -8.283463 8.283463l0 0c-4.574829 0 -8.283463 -3.7086334 -8.283463 -8.283463z" fill-rule="evenodd"/><path fill="#009898" d="m185.45407 139.66142l0 0c0 -4.574829 3.7086334 -8.283463 8.283463 -8.283463l0 0c2.1969147 0 4.3038483 0.8727112 5.8573 2.4261627c1.5534515 1.5534515 2.4261627 3.6603851 2.4261627 5.8573l0 0c0 4.574829 -3.7086334 8.283463 -8.283463 8.283463l0 0c-4.574829 0 -8.283463 -3.7086334 -8.283463 -8.283463z" fill-rule="evenodd"/><path stroke="#009898" stroke-width="1.0" stroke-linejoin="round" stroke-linecap="butt" d="m185.45407 139.66142l0 0c0 -4.574829 3.7086334 -8.283463 8.283463 -8.283463l0 0c2.1969147 0 4.3038483 0.8727112 5.8573 2.4261627c1.5534515 1.5534515 2.4261627 3.6603851 2.4261627 5.8573l0 0c0 4.574829 -3.7086334 8.283463 -8.283463 8.283463l0 0c-4.574829 0 -8.283463 -3.7086334 -8.283463 -8.283463z" fill-rule="evenodd"/><path fill="#0e6a88" d="m211.80052 139.66142l0 0c0 -4.574829 3.7086334 -8.283463 8.283463 -8.283463l0 0c2.1969147 0 4.3038483 0.8727112 5.8573 2.4261627c1.5534515 1.5534515 2.4261627 3.6603851 2.4261627 5.8573l0 0c0 4.574829 -3.7086334 8.283463 -8.283463 8.283463l0 0c-4.574829 0 -8.283463 -3.7086334 -8.283463 -8.283463z" fill-rule="evenodd"/><path stroke="#0e6a88" stroke-width="1.0" stroke-linejoin="round" stroke-linecap="butt" d="m211.80052 139.66142l0 0c0 -4.574829 3.7086334 -8.283463 8.283463 -8.283463l0 0c2.1969147 0 4.3038483 0.8727112 5.8573 2.4261627c1.5534515 1.5534515 2.4261627 3.6603851 2.4261627 5.8573l0 0c0 4.574829 -3.7086334 8.283463 -8.283463 8.283463l0 0c-4.574829 0 -8.283463 -3.7086334 -8.283463 -8.283463z" fill-rule="evenodd"/><path fill="#da5050" d="m238.14699 139.66142l0 0c0 -4.574829 3.7086334 -8.283463 8.283463 -8.283463l0 0c2.1969147 0 4.303833 0.8727112 5.8572845 2.4261627c1.5534515 1.5534515 2.426178 3.6603851 2.426178 5.8573l0 0c0 4.574829 -3.7086334 8.283463 -8.283463 8.283463l0 0c-4.574829 0 -8.283463 -3.7086334 -8.283463 -8.283463z" fill-rule="evenodd"/><path stroke="#da5050" stroke-width="1.0" stroke-linejoin="round" stroke-linecap="butt" d="m238.14699 139.66142l0 0c0 -4.574829 3.7086334 -8.283463 8.283463 -8.283463l0 0c2.1969147 0 4.303833 0.8727112 5.8572845 2.4261627c1.5534515 1.5534515 2.426178 3.6603851 2.426178 5.8573l0 0c0 4.574829 -3.7086334 8.283463 -8.283463 8.283463l0 0c-4.574829 0 -8.283463 -3.7086334 -8.283463 -8.283463z" fill-rule="evenodd"/><path fill="#3f3f3f" d="m264.49344 139.66142l0 0c0 -4.574829 3.7086182 -8.283463 8.283478 -8.283463l0 0c2.1968994 0 4.303833 0.8727112 5.8572693 2.4261627c1.5534668 1.5534515 2.426178 3.6603851 2.426178 5.8573l0 0c0 4.574829 -3.7086182 8.283463 -8.283447 8.283463l0 0c-4.5748596 0 -8.283478 -3.7086334 -8.283478 -8.283463z" fill-rule="evenodd"/><path stroke="#3f3f3f" stroke-width="1.0" stroke-linejoin="round" stroke-linecap="butt" d="m264.49344 139.66142l0 0c0 -4.574829 3.7086182 -8.283463 8.283478 -8.283463l0 0c2.1968994 0 4.303833 0.8727112 5.8572693 2.4261627c1.5534668 1.5534515 2.426178 3.6603851 2.426178 5.8573l0 0c0 4.574829 -3.7086182 8.283463 -8.283447 8.283463l0 0c-4.5748596 0 -8.283478 -3.7086334 -8.283478 -8.283463z" fill-rule="evenodd"/><path fill="#c450da" d="m290.8399 139.66142l0 0c0 -4.574829 3.7086182 -8.283463 8.283447 -8.283463l0 0c2.19693 0 4.3038635 0.8727112 5.8573 2.4261627c1.5534668 1.5534515 2.426178 3.6603851 2.426178 5.8573l0 0c0 4.574829 -3.7086487 8.283463 -8.283478 8.283463l0 0c-4.574829 0 -8.283447 -3.7086334 -8.283447 -8.283463z" fill-rule="evenodd"/><path stroke="#c450da" stroke-width="1.0" stroke-linejoin="round" stroke-linecap="butt" d="m290.8399 139.66142l0 0c0 -4.574829 3.7086182 -8.283463 8.283447 -8.283463l0 0c2.19693 0 4.3038635 0.8727112 5.8573 2.4261627c1.5534668 1.5534515 2.426178 3.6603851 2.426178 5.8573l0 0c0 4.574829 -3.7086487 8.283463 -8.283478 8.283463l0 0c-4.574829 0 -8.283447 -3.7086334 -8.283447 -8.283463z" fill-rule="evenodd"/></g></svg>